<?xml version="1.0" encoding="UTF-8"?>
<svg id="Layer_1" data-name="Layer 1" xmlns="http://www.w3.org/2000/svg" viewBox="0 0 187.36 145.37">
  <defs>
    <style>
      .cls-1 {
        fill: #545353;
      }

      .cls-2 {
        fill: #848489;
      }

      .cls-3 {
        fill: #f15b31;
      }

      .cls-4 {
        fill: #ef3a24;
      }

      .cls-5 {
        fill: #f8a685;
      }
    </style>
  </defs>
  <path class="cls-2" d="m0,82.07c.91-2.42,2.76-3.16,5.17-2.86,2.04,1.02,2.62,2.68,2.6,4.92-.1,9.74-.12,19.47.01,29.21.03,2.46-.41,4.41-2.62,5.68-2.42.31-4.22-.5-5.16-2.86v-34.09Z"/>
  <path class="cls-3" d="m77.62.59c10.43,1.77,19.07,6.73,26,14.7,2.71,3.12,4.15,3.07,6.88-.01C120.23,4.29,132.44-.74,147.07.1c1.45,2.38,3.03,4.69,4.32,7.15,4.29,8.22,5.55,16.95,4.5,26.16-.82,7.22-3.03,13.99-5.98,20.54-3.33,7.4-7.64,14.25-12.54,20.7-4.34,5.7-8.8,11.31-14.03,16.24-.02-2.66-.02-5.32-.07-7.99-.05-2.15-1.49-3.66-3.63-3.73-1.69-.06-3.38.03-5.07.06-1.98-.17-3.73.16-4.61,2.25-.53-1.6-.16-3.25-.24-4.88-.13-2.62-1.48-4.07-4.06-4.15-1.45-.04-2.91.03-4.37.05-4.43-.02-5.4.95-5.41,5.45-.01,4.07-.05,8.14-.07,12.2-3.52.03-7.04.05-10.56.08-2.25-.02-4.49-.05-6.74-.05-11.18-.03-22.35-.04-33.53-.07-5.58-7.86-10.65-16.01-14.02-25.11-3.84-10.37-5.5-20.92-2.85-31.89C32.33,15.74,47.73,2.2,65.53.27c2.92-.32,5.82-.34,8.74-.17.9,1.64,2.11,1.14,3.35.48Zm21.04,43.76c-1.29-4.24-2.54-8.3-3.75-12.38-.49-1.64-1.24-3.04-3.15-3.02-1.81.02-2.55,1.35-3.02,2.93-2.16,7.23-4.35,14.46-6.54,21.68-.81,2.66-1.67,5.3-2.6,8.26-2.12-7.02-4.12-13.67-6.13-20.31-.62-2.05-1.55-2.72-3.75-2.73-2.38-.01-4.75,0-7.13,0-6.52,0-13.04-.01-19.56,0-2.18,0-3.57,1.56-3.17,3.47.3,1.44,1.68,2.37,3.67,2.38,4.81.02,9.63,0,14.44,0,3.4,0,6.81,0,10.22,0,.2.45.39.77.49,1.11,2.61,8.62,5.21,17.25,7.81,25.88.5,1.65,1.17,3.2,3.24,3.13,1.94-.07,2.55-1.55,3.03-3.15,1.83-6.12,3.69-12.24,5.55-18.36,1.09-3.57,2.2-7.14,3.3-10.71.95,1.79,1.49,3.56,2.04,5.34.47,1.52,1.47,2.34,3.09,2.34,8.84,0,17.67.02,26.51-.01,1.83,0,2.97-1.13,3.02-2.75.05-1.65-.97-2.81-2.75-3.07-.6-.08-1.22-.04-1.83-.04-7.61,0-15.23,0-23.02,0Z"/>
  <path class="cls-4" d="m123.34,90.88c5.23-4.93,9.69-10.54,14.03-16.24,4.91-6.45,9.21-13.3,12.54-20.7,2.95-6.55,5.16-13.31,5.98-20.54,1.04-9.2-.22-17.94-4.5-26.16-1.29-2.46-2.87-4.77-4.32-7.15,16.62.72,32.57,13.25,38.04,29.84,3.71,11.26,2.53,22.35-1.28,33.29-4.44,12.77-11.81,23.84-20.4,34.13-15.04,18.02-32.8,32.99-51.99,46.34-3.28,2.28-5.57,2.22-8.86-.06-6.97-4.81-13.71-9.93-20.26-15.3-.56-.46-1.21-.83-1.55-1.51,2.79-1.49,5.2-3.54,7.78-5.35,2.47-1.73,4.68-3.81,7.3-5.32.02,1.58.05,3.15.06,4.73.02,3.45,1.03,4.59,4.38,4.93.18.24.37.32.59.05.13-.05.27-.1.4-.15,1.34.03,2.67.1,4.01.07,3.02-.06,4.37-1.49,4.46-4.51.04-1.5-.3-3.03.25-4.5.94,2.18,2.8,2.39,4.82,2.25,1.34.02,2.67.07,4.01.07,3.05,0,4.46-1.42,4.47-4.45.02-7.92.04-15.84.06-23.75Z"/>
  <path class="cls-1" d="m85.25,90.23c3.52-.03,7.04-.05,10.56-.08,0,5.86,0,11.72.01,17.59-11.87.02-23.74.04-35.61.06-10.84,0-21.68,0-32.61,0-.37.9-.17,1.87-.17,2.82-.03,3.66,0,7.32-.02,10.98-.02,2.61-1.42,4.08-4.02,4.2-1.46.07-2.92-.02-4.38-.04,2.11-1.37,2.62-3.35,2.6-5.79-.09-13.05-.04-26.1-.04-39.14,0-2.99.52-6.1-2.11-8.43,1.21-.02,2.42-.08,3.63-.04,2.9.1,4.3,1.56,4.32,4.46.02,4.43.03,8.87.04,13.3,0,3.39,0,6.77,0,10.07.39.12.5.19.62.19,17.23.01,34.47.05,51.7,0,3,0,5.34-2.54,5.45-5.58.06-1.52.02-3.05.03-4.58Z"/>
  <path class="cls-2" d="m85.25,90.23c0,1.53.03,3.05-.03,4.58-.11,3.04-2.45,5.57-5.45,5.58-17.23.04-34.47.01-51.7,0-.11,0-.23-.07-.62-.19,0-3.29,0-6.68,0-10.07,5.85,0,11.69,0,17.54,0,11.18.02,22.35.04,33.53.07,2.25,0,4.49.03,6.74.05Z"/>
  <path class="cls-2" d="m19.47,72.39c2.63,2.32,2.11,5.44,2.11,8.43,0,13.05-.05,26.1.04,39.14.02,2.45-.49,4.42-2.6,5.79-3.5.4-5.31-1.11-5.39-4.51-.03-1.51-.06-3.02-.09-4.53,0-10.88.01-21.77.02-32.65,0-1.03.05-2.07-.4-3.04,1.07-1.4.33-3,.45-4.5.15-1.8.76-3.27,2.5-3.84,1.04-.34,2.21-.58,3.37-.3Z"/>
  <path class="cls-3" d="m60.21,107.79c11.87-.02,23.74-.04,35.61-.06,0,2.81,0,5.61,0,8.42-2.62,1.52-4.83,3.6-7.3,5.32-2.58,1.8-4.99,3.86-7.78,5.35-5.54-4.26-10.59-9.09-15.61-13.93-1.7-1.64-3.29-3.4-4.93-5.1Z"/>
  <path class="cls-1" d="m13.15,81.03c.45.97.41,2.01.4,3.04,0,10.88-.01,21.77-.02,32.65-1.07,1.81-2.66,2.53-4.73,2.37-1.21-.09-2.43-.05-3.64-.06,2.21-1.28,2.65-3.22,2.62-5.68-.13-9.73-.11-19.47-.01-29.21.02-2.24-.56-3.9-2.6-4.92,1.51-.02,3.01-.03,4.52-.06,1.51-.02,2.68.56,3.46,1.87Z"/>
  <path class="cls-3" d="m77.62.59c-1.23.66-2.44,1.15-3.35-.48,1.12.16,2.23.32,3.35.48Z"/>
  <path class="cls-5" d="m98.67,44.35c7.8,0,15.41,0,23.02,0,.61,0,1.23-.05,1.83.04,1.79.25,2.81,1.42,2.75,3.07-.05,1.62-1.19,2.74-3.02,2.75-8.84.03-17.67.01-26.51.01-1.62,0-2.62-.83-3.09-2.34-.55-1.77-1.09-3.55-2.04-5.34-1.1,3.57-2.21,7.13-3.3,10.71-1.86,6.12-3.72,12.23-5.55,18.36-.48,1.6-1.09,3.08-3.03,3.15-2.07.07-2.75-1.47-3.24-3.13-2.6-8.63-5.2-17.25-7.81-25.88-.1-.34-.29-.65-.49-1.11-3.41,0-6.81,0-10.22,0-4.81,0-9.63.01-14.44,0-1.98,0-3.37-.94-3.67-2.38-.39-1.91.99-3.47,3.17-3.47,6.52-.02,13.04,0,19.56,0,2.38,0,4.75,0,7.13,0,2.19.01,3.13.68,3.75,2.73,2.01,6.64,4.01,13.29,6.13,20.31.93-2.96,1.79-5.6,2.6-8.26,2.2-7.22,4.39-14.45,6.54-21.68.47-1.58,1.21-2.91,3.02-2.93,1.91-.02,2.66,1.39,3.15,3.02,1.21,4.08,2.46,8.14,3.75,12.38Z"/>
  <path class="cls-2" d="m95.83,116.15c0-2.81,0-5.61,0-8.42,0-5.86,0-11.72-.01-17.59.02-4.07.06-8.14.07-12.2.01-4.5.97-5.47,5.41-5.45,2.06,1.31,2.62,3.21,2.61,5.6-.08,14.07-.07,28.14,0,42.21.01,2.35-.64,4.15-2.63,5.41-.13.05-.27.1-.4.15-.19-.02-.39-.03-.59-.05-3.36-.34-4.37-1.48-4.38-4.93,0-1.58-.04-3.15-.06-4.73Z"/>
  <path class="cls-1" d="m101.27,125.71c1.99-1.26,2.64-3.06,2.63-5.41-.07-14.07-.08-28.14,0-42.21.01-2.39-.54-4.29-2.61-5.6,1.46-.02,2.91-.09,4.37-.05,2.58.08,3.93,1.53,4.06,4.15.08,1.63-.29,3.27.24,4.88-.3.57-.25,1.18-.24,1.79,0,10.57,0,21.14,0,31.7,0,.61-.05,1.23.26,1.79-.55,1.47-.21,3-.25,4.5-.09,3.02-1.44,4.46-4.46,4.51-1.33.03-2.67-.04-4.01-.07Z"/>
  <path class="cls-2" d="m109.98,116.76c-.31-.56-.26-1.18-.26-1.79,0-10.57,0-21.14,0-31.7,0-.61-.06-1.23.24-1.79.88-2.09,2.62-2.42,4.61-2.25,2.07.9,2.92,2.4,2.9,4.72-.08,9.86-.1,19.72.01,29.57.03,2.42-.52,4.28-2.68,5.49-2.02.14-3.88-.07-4.82-2.25Z"/>
  <path class="cls-1" d="m114.8,119.01c2.16-1.21,2.71-3.07,2.68-5.49-.12-9.86-.1-19.71-.01-29.57.02-2.32-.83-3.83-2.9-4.72,1.69-.02,3.38-.11,5.07-.06,2.14.07,3.59,1.58,3.63,3.73.06,2.66.05,5.32.07,7.99-.02,7.92-.04,15.84-.06,23.75,0,3.03-1.41,4.44-4.47,4.45-1.34,0-2.67-.05-4.01-.07Z"/>
  <path class="cls-3" d="m100.28,125.81c.2.02.39.03.59.05-.22.27-.41.19-.59-.05Z"/>
</svg>